<svg width="5" height="10" viewBox="0 0 5 10" fill="none" xmlns="http://www.w3.org/2000/svg">
<path d="M1.0829 1.92991C1.0829 1.86757 1.0915 1.73295 1.10872 1.5269C1.12723 1.32041 1.2047 1.1044 1.34372 0.877573C1.48145 0.651609 1.70483 0.448587 2.01558 0.268942C2.32504 0.0901615 2.77223 0.00012207 3.35586 0.00012207H5V1.80221H3.79616C3.67694 1.80221 3.5659 1.84723 3.46561 1.93597C3.36619 2.02471 3.31497 2.10912 3.31497 2.18747V3.30864H4.99957C4.98192 3.52811 4.96255 3.74152 4.94017 3.94757L4.87346 4.49214C4.84678 4.67611 4.81966 4.84667 4.79298 5.0038H3.30292V10.0001H1.0829V5.00337H0V3.30864H1.0829V1.92991Z" fill="white"/>
</svg>
