<svg width="10" height="9" viewBox="0 0 10 9" fill="none" xmlns="http://www.w3.org/2000/svg">
<path d="M4.78515 0.810827C5.9867 0.810827 6.12902 0.8154 6.60352 0.83705C7.04227 0.857074 7.28054 0.930383 7.43913 0.991992C7.64916 1.07362 7.79908 1.17116 7.95654 1.32862C8.114 1.48608 8.21153 1.636 8.29315 1.84603C8.35477 2.00461 8.42808 2.24289 8.44811 2.68161C8.46976 3.15614 8.47433 3.29845 8.47433 4.50001C8.47433 5.70157 8.46976 5.84388 8.44811 6.31839C8.42808 6.75713 8.35477 6.9954 8.29315 7.15399C8.21153 7.36402 8.114 7.51394 7.95654 7.6714C7.79908 7.82886 7.64916 7.92639 7.43913 8.00801C7.28054 8.06964 7.04227 8.14294 6.60352 8.16297C6.12909 8.18462 5.98678 8.18919 4.78515 8.18919C3.58352 8.18919 3.44121 8.18462 2.96677 8.16297C2.52802 8.14294 2.28975 8.06964 2.13119 8.00801C1.92114 7.92639 1.77121 7.82886 1.61375 7.6714C1.45629 7.51394 1.35876 7.36402 1.27715 7.15399C1.21552 6.9954 1.14221 6.75713 1.12219 6.3184C1.10054 5.84388 1.09597 5.70157 1.09597 4.50001C1.09597 3.29845 1.10054 3.15614 1.12219 2.68163C1.14221 2.24289 1.21552 2.00461 1.27715 1.84603C1.35876 1.636 1.45629 1.48608 1.61375 1.32862C1.77121 1.17116 1.92114 1.07362 2.13119 0.991992C2.28975 0.930383 2.52802 0.857074 2.96675 0.83705C3.44128 0.8154 3.58359 0.810827 4.78515 0.810827ZM4.78515 0C3.56301 0 3.40978 0.00518021 2.92981 0.02708C2.45082 0.048944 2.12372 0.125004 1.83747 0.236253C1.54155 0.351254 1.2906 0.505124 1.04043 0.755292C0.790262 1.00546 0.636392 1.25641 0.521391 1.55233C0.410142 1.83858 0.334082 2.16568 0.312218 2.64467C0.290319 3.12463 0.285156 3.27787 0.285156 4.50001C0.285156 5.72214 0.290319 5.87539 0.312218 6.35534C0.334082 6.83433 0.410142 7.16144 0.521391 7.44769C0.636392 7.74359 0.790262 7.99456 1.04043 8.24473C1.2906 8.49489 1.54155 8.64876 1.83747 8.76377C2.12372 8.87501 2.45082 8.95107 2.92981 8.97294C3.40978 8.99484 3.56301 9 4.78515 9C6.00728 9 6.16053 8.99484 6.64048 8.97294C7.11947 8.95107 7.44658 8.87501 7.73283 8.76377C8.02874 8.64876 8.2797 8.49489 8.52986 8.24473C8.78003 7.99456 8.9339 7.7436 9.0489 7.44769C9.16015 7.16144 9.23621 6.83433 9.25808 6.35534C9.27998 5.87539 9.28516 5.72214 9.28516 4.50001C9.28516 3.27787 9.27998 3.12463 9.25808 2.64467C9.23621 2.16568 9.16015 1.83858 9.0489 1.55233C8.9339 1.25641 8.78003 1.00546 8.52986 0.755292C8.2797 0.505124 8.02874 0.351254 7.73283 0.236253C7.44658 0.125004 7.11947 0.048944 6.64048 0.02708C6.16053 0.00518021 6.00728 0 4.78515 0ZM4.78515 2.18919C3.50892 2.18919 2.47433 3.22379 2.47433 4.50001C2.47433 5.77623 3.50892 6.81083 4.78515 6.81083C6.06137 6.81083 7.09597 5.77623 7.09597 4.50001C7.09597 3.22379 6.06137 2.18919 4.78515 2.18919ZM4.78515 6.00002C3.95673 6.00002 3.28514 5.32843 3.28514 4.50001C3.28514 3.67159 3.95673 3 4.78515 3C5.61357 3 6.28516 3.67159 6.28516 4.50001C6.28516 5.32843 5.61357 6.00002 4.78515 6.00002ZM7.72725 2.09789C7.72725 2.39613 7.4855 2.6379 7.18726 2.6379C6.88903 2.6379 6.64725 2.39613 6.64725 2.09789C6.64725 1.79966 6.88903 1.5579 7.18726 1.5579C7.4855 1.5579 7.72725 1.79966 7.72725 2.09789Z" fill="white"/>
</svg>
